<mxfile host="app.diagrams.net" agent="Mozilla/5.0 (Windows NT 10.0; Win64; x64) AppleWebKit/537.36 (KHTML, like Gecko) Chrome/141.0.0.0 Safari/537.36" version="28.2.7" pages="3">
  <diagram name="Application-architecture(photo upload)" id="s_XYkJzndebJkqIxY8UF">
    <mxGraphModel dx="2084" dy="1192" grid="1" gridSize="10" guides="1" tooltips="1" connect="1" arrows="1" fold="1" page="1" pageScale="1" pageWidth="827" pageHeight="1169" math="0" shadow="0">
      <root>
        <mxCell id="0" />
        <mxCell id="1" parent="0" />
        <mxCell id="EIYM2t3Yp45QkGykNU1l-1" style="edgeStyle=orthogonalEdgeStyle;rounded=0;orthogonalLoop=1;jettySize=auto;html=1;entryX=0;entryY=0.5;entryDx=0;entryDy=0;" edge="1" parent="1" source="EIYM2t3Yp45QkGykNU1l-2" target="EIYM2t3Yp45QkGykNU1l-4">
          <mxGeometry relative="1" as="geometry" />
        </mxCell>
        <mxCell id="EIYM2t3Yp45QkGykNU1l-2" value="Start" style="ellipse;whiteSpace=wrap;html=1;aspect=fixed;" vertex="1" parent="1">
          <mxGeometry x="160" y="180" width="80" height="80" as="geometry" />
        </mxCell>
        <mxCell id="EIYM2t3Yp45QkGykNU1l-3" style="edgeStyle=orthogonalEdgeStyle;rounded=0;orthogonalLoop=1;jettySize=auto;html=1;entryX=0;entryY=0.5;entryDx=0;entryDy=0;" edge="1" parent="1" source="EIYM2t3Yp45QkGykNU1l-4" target="EIYM2t3Yp45QkGykNU1l-6">
          <mxGeometry relative="1" as="geometry" />
        </mxCell>
        <mxCell id="EIYM2t3Yp45QkGykNU1l-4" value="Main Gallery" style="rounded=0;whiteSpace=wrap;html=1;" vertex="1" parent="1">
          <mxGeometry x="320" y="200" width="120" height="60" as="geometry" />
        </mxCell>
        <mxCell id="EIYM2t3Yp45QkGykNU1l-5" style="edgeStyle=orthogonalEdgeStyle;rounded=0;orthogonalLoop=1;jettySize=auto;html=1;" edge="1" parent="1" source="EIYM2t3Yp45QkGykNU1l-6" target="EIYM2t3Yp45QkGykNU1l-8">
          <mxGeometry relative="1" as="geometry" />
        </mxCell>
        <mxCell id="EIYM2t3Yp45QkGykNU1l-6" value="User taps &#39;upload&#39; button" style="rounded=0;whiteSpace=wrap;html=1;" vertex="1" parent="1">
          <mxGeometry x="540" y="200" width="120" height="60" as="geometry" />
        </mxCell>
        <mxCell id="EIYM2t3Yp45QkGykNU1l-7" style="edgeStyle=orthogonalEdgeStyle;rounded=0;orthogonalLoop=1;jettySize=auto;html=1;" edge="1" parent="1" source="EIYM2t3Yp45QkGykNU1l-8" target="EIYM2t3Yp45QkGykNU1l-9">
          <mxGeometry relative="1" as="geometry" />
        </mxCell>
        <mxCell id="EIYM2t3Yp45QkGykNU1l-8" value="User selects photos from device" style="rounded=0;whiteSpace=wrap;html=1;" vertex="1" parent="1">
          <mxGeometry x="730" y="200" width="120" height="60" as="geometry" />
        </mxCell>
        <mxCell id="EIYM2t3Yp45QkGykNU1l-9" value="UI updates to show &#39;pending&#39; icon on device" style="rounded=0;whiteSpace=wrap;html=1;" vertex="1" parent="1">
          <mxGeometry x="960" y="200" width="120" height="60" as="geometry" />
        </mxCell>
        <mxCell id="EIYM2t3Yp45QkGykNU1l-10" style="edgeStyle=orthogonalEdgeStyle;rounded=0;orthogonalLoop=1;jettySize=auto;html=1;entryX=0.5;entryY=0;entryDx=0;entryDy=0;" edge="1" parent="1" source="EIYM2t3Yp45QkGykNU1l-11" target="EIYM2t3Yp45QkGykNU1l-16">
          <mxGeometry relative="1" as="geometry" />
        </mxCell>
        <mxCell id="EIYM2t3Yp45QkGykNU1l-11" value="&quot;Begin background process sync&quot;" style="rounded=0;whiteSpace=wrap;html=1;dashed=1;" vertex="1" parent="1">
          <mxGeometry x="1180" y="200" width="120" height="60" as="geometry" />
        </mxCell>
        <mxCell id="EIYM2t3Yp45QkGykNU1l-12" style="edgeStyle=orthogonalEdgeStyle;rounded=0;orthogonalLoop=1;jettySize=auto;html=1;" edge="1" parent="1" source="EIYM2t3Yp45QkGykNU1l-16">
          <mxGeometry relative="1" as="geometry">
            <mxPoint x="1140" y="350" as="targetPoint" />
          </mxGeometry>
        </mxCell>
        <mxCell id="EIYM2t3Yp45QkGykNU1l-13" value="Yes" style="edgeLabel;html=1;align=center;verticalAlign=middle;resizable=0;points=[];" vertex="1" connectable="0" parent="EIYM2t3Yp45QkGykNU1l-12">
          <mxGeometry x="-0.04" y="-2" relative="1" as="geometry">
            <mxPoint as="offset" />
          </mxGeometry>
        </mxCell>
        <mxCell id="EIYM2t3Yp45QkGykNU1l-14" style="edgeStyle=orthogonalEdgeStyle;rounded=0;orthogonalLoop=1;jettySize=auto;html=1;" edge="1" parent="1" source="EIYM2t3Yp45QkGykNU1l-16">
          <mxGeometry relative="1" as="geometry">
            <mxPoint x="1350" y="350" as="targetPoint" />
          </mxGeometry>
        </mxCell>
        <mxCell id="EIYM2t3Yp45QkGykNU1l-15" value="No" style="edgeLabel;html=1;align=center;verticalAlign=middle;resizable=0;points=[];" vertex="1" connectable="0" parent="EIYM2t3Yp45QkGykNU1l-14">
          <mxGeometry x="-0.1657" y="1" relative="1" as="geometry">
            <mxPoint as="offset" />
          </mxGeometry>
        </mxCell>
        <mxCell id="EIYM2t3Yp45QkGykNU1l-16" value="Sync successful?" style="rhombus;whiteSpace=wrap;html=1;" vertex="1" parent="1">
          <mxGeometry x="1200" y="310" width="80" height="80" as="geometry" />
        </mxCell>
        <mxCell id="EIYM2t3Yp45QkGykNU1l-17" style="edgeStyle=orthogonalEdgeStyle;rounded=0;orthogonalLoop=1;jettySize=auto;html=1;entryX=1;entryY=0.5;entryDx=0;entryDy=0;" edge="1" parent="1" source="EIYM2t3Yp45QkGykNU1l-18" target="EIYM2t3Yp45QkGykNU1l-19">
          <mxGeometry relative="1" as="geometry" />
        </mxCell>
        <mxCell id="EIYM2t3Yp45QkGykNU1l-18" value="UI updates to show synced icon" style="rounded=0;whiteSpace=wrap;html=1;" vertex="1" parent="1">
          <mxGeometry x="1020" y="320" width="120" height="60" as="geometry" />
        </mxCell>
        <mxCell id="EIYM2t3Yp45QkGykNU1l-19" value="End" style="ellipse;whiteSpace=wrap;html=1;aspect=fixed;" vertex="1" parent="1">
          <mxGeometry x="870" y="310" width="80" height="80" as="geometry" />
        </mxCell>
        <mxCell id="EIYM2t3Yp45QkGykNU1l-20" style="edgeStyle=orthogonalEdgeStyle;rounded=0;orthogonalLoop=1;jettySize=auto;html=1;" edge="1" parent="1" source="EIYM2t3Yp45QkGykNU1l-21" target="EIYM2t3Yp45QkGykNU1l-22">
          <mxGeometry relative="1" as="geometry" />
        </mxCell>
        <mxCell id="EIYM2t3Yp45QkGykNU1l-21" value="UI updates to show &quot;error&quot; icon" style="rounded=0;whiteSpace=wrap;html=1;" vertex="1" parent="1">
          <mxGeometry x="1350" y="320" width="120" height="60" as="geometry" />
        </mxCell>
        <mxCell id="EIYM2t3Yp45QkGykNU1l-22" value="End" style="ellipse;whiteSpace=wrap;html=1;aspect=fixed;" vertex="1" parent="1">
          <mxGeometry x="1510" y="310" width="80" height="80" as="geometry" />
        </mxCell>
        <mxCell id="EIYM2t3Yp45QkGykNU1l-23" style="edgeStyle=orthogonalEdgeStyle;rounded=0;orthogonalLoop=1;jettySize=auto;html=1;entryX=0.031;entryY=0.389;entryDx=0;entryDy=0;entryPerimeter=0;" edge="1" parent="1" source="EIYM2t3Yp45QkGykNU1l-9" target="EIYM2t3Yp45QkGykNU1l-11">
          <mxGeometry relative="1" as="geometry" />
        </mxCell>
        <mxCell id="ycwQ-p3ICj3dNOQRAaaV-1" value="&lt;h1 style=&quot;margin-top: 0px;&quot;&gt;Application-architecture(for uploading photos)&lt;/h1&gt;&lt;p&gt;Defines the user side view of when the upload button is clicked to upload a photo to the cloud.&lt;/p&gt;" style="text;html=1;whiteSpace=wrap;overflow=hidden;rounded=0;" vertex="1" parent="1">
          <mxGeometry x="700" y="20" width="840" height="90" as="geometry" />
        </mxCell>
      </root>
    </mxGraphModel>
  </diagram>
  <diagram id="Y9x_JYspf5t5Gx346qfd" name="Server-architecture(photo-uploads)">
    <mxGraphModel dx="4300" dy="1987" grid="1" gridSize="10" guides="1" tooltips="1" connect="1" arrows="1" fold="1" page="1" pageScale="1" pageWidth="827" pageHeight="1169" math="0" shadow="0">
      <root>
        <mxCell id="0" />
        <mxCell id="1" parent="0" />
        <mxCell id="RMAUc15zQo7j3xrATnNy-1" value="Server side artchitecture" style="swimlane;childLayout=stackLayout;resizeParent=1;resizeParentMax=0;startSize=20;html=1;" vertex="1" parent="1">
          <mxGeometry x="110.00000000000045" y="60" width="1840" height="1660" as="geometry" />
        </mxCell>
        <mxCell id="RMAUc15zQo7j3xrATnNy-2" value="Amazon API gateway" style="swimlane;startSize=20;html=1;" vertex="1" parent="RMAUc15zQo7j3xrATnNy-1">
          <mxGeometry y="20" width="370" height="1640" as="geometry" />
        </mxCell>
        <mxCell id="RMAUc15zQo7j3xrATnNy-8" value="Amazon API Gateway" style="sketch=0;outlineConnect=0;fontColor=#232F3E;gradientColor=none;strokeColor=#ffffff;fillColor=#232F3E;dashed=0;verticalLabelPosition=middle;verticalAlign=bottom;align=center;html=1;whiteSpace=wrap;fontSize=10;fontStyle=1;spacing=3;shape=mxgraph.aws4.productIcon;prIcon=mxgraph.aws4.api_gateway;" vertex="1" parent="RMAUc15zQo7j3xrATnNy-2">
          <mxGeometry x="73.99999999999955" y="60" width="80" height="110" as="geometry" />
        </mxCell>
        <mxCell id="RMAUc15zQo7j3xrATnNy-26" style="edgeStyle=orthogonalEdgeStyle;rounded=0;orthogonalLoop=1;jettySize=auto;html=1;exitX=0;exitY=0.5;exitDx=0;exitDy=0;" edge="1" parent="RMAUc15zQo7j3xrATnNy-2" source="RMAUc15zQo7j3xrATnNy-24">
          <mxGeometry relative="1" as="geometry">
            <mxPoint x="149.99999999999955" y="339.6" as="targetPoint" />
            <mxPoint x="275" y="339.6" as="sourcePoint" />
          </mxGeometry>
        </mxCell>
        <mxCell id="RMAUc15zQo7j3xrATnNy-27" value="(5b. 413 Error Response)" style="edgeLabel;html=1;align=center;verticalAlign=middle;resizable=0;points=[];" vertex="1" connectable="0" parent="RMAUc15zQo7j3xrATnNy-26">
          <mxGeometry x="-0.0592" y="1" relative="1" as="geometry">
            <mxPoint as="offset" />
          </mxGeometry>
        </mxCell>
        <mxCell id="RMAUc15zQo7j3xrATnNy-3" value="AWS lambda" style="swimlane;startSize=20;html=1;gradientColor=default;strokeColor=default;rounded=0;swimlaneLine=1;" vertex="1" parent="RMAUc15zQo7j3xrATnNy-1">
          <mxGeometry x="370" y="20" width="390" height="1640" as="geometry" />
        </mxCell>
        <mxCell id="RMAUc15zQo7j3xrATnNy-11" value="" style="outlineConnect=0;dashed=0;verticalLabelPosition=bottom;verticalAlign=top;align=center;html=1;shape=mxgraph.aws3.lambda_function;fillColor=#F58534;gradientColor=none;" vertex="1" parent="RMAUc15zQo7j3xrATnNy-3">
          <mxGeometry x="90.49999999999955" y="79" width="69" height="72" as="geometry" />
        </mxCell>
        <mxCell id="RMAUc15zQo7j3xrATnNy-24" value="is_quota_ok == true?" style="rhombus;whiteSpace=wrap;html=1;" vertex="1" parent="RMAUc15zQo7j3xrATnNy-3">
          <mxGeometry x="85" y="270" width="145" height="140" as="geometry" />
        </mxCell>
        <mxCell id="RMAUc15zQo7j3xrATnNy-38" style="edgeStyle=orthogonalEdgeStyle;rounded=0;orthogonalLoop=1;jettySize=auto;html=1;" edge="1" parent="RMAUc15zQo7j3xrATnNy-3" source="RMAUc15zQo7j3xrATnNy-35">
          <mxGeometry relative="1" as="geometry">
            <mxPoint x="-160.00000000000045" y="505" as="targetPoint" />
          </mxGeometry>
        </mxCell>
        <mxCell id="RMAUc15zQo7j3xrATnNy-39" value="(8. 200 OK Response [pre_signed_url])" style="edgeLabel;html=1;align=center;verticalAlign=middle;resizable=0;points=[];" vertex="1" connectable="0" parent="RMAUc15zQo7j3xrATnNy-38">
          <mxGeometry x="-0.122" y="3" relative="1" as="geometry">
            <mxPoint x="-1" as="offset" />
          </mxGeometry>
        </mxCell>
        <mxCell id="RMAUc15zQo7j3xrATnNy-35" value="(7. Generate Pre-signed URL)" style="rounded=0;whiteSpace=wrap;html=1;" vertex="1" parent="RMAUc15zQo7j3xrATnNy-3">
          <mxGeometry x="97.49999999999955" y="475" width="120" height="60" as="geometry" />
        </mxCell>
        <mxCell id="RMAUc15zQo7j3xrATnNy-43" value="" style="outlineConnect=0;dashed=0;verticalLabelPosition=bottom;verticalAlign=top;align=center;html=1;shape=mxgraph.aws3.lambda_function;fillColor=#F58534;gradientColor=none;" vertex="1" parent="RMAUc15zQo7j3xrATnNy-3">
          <mxGeometry x="129.99999999999955" y="790" width="69" height="72" as="geometry" />
        </mxCell>
        <mxCell id="RMAUc15zQo7j3xrATnNy-46" value="processPhotoLambda" style="text;html=1;whiteSpace=wrap;strokeColor=none;fillColor=none;align=center;verticalAlign=middle;rounded=0;" vertex="1" parent="RMAUc15zQo7j3xrATnNy-3">
          <mxGeometry x="97.5" y="750" width="140" height="30" as="geometry" />
        </mxCell>
        <mxCell id="RMAUc15zQo7j3xrATnNy-54" value="" style="outlineConnect=0;dashed=0;verticalLabelPosition=bottom;verticalAlign=top;align=center;html=1;shape=mxgraph.aws3.lambda_function;fillColor=#F58534;gradientColor=none;" vertex="1" parent="RMAUc15zQo7j3xrATnNy-3">
          <mxGeometry x="123" y="1280" width="107" height="102" as="geometry" />
        </mxCell>
        <mxCell id="RMAUc15zQo7j3xrATnNy-55" value="cleanupOrphanedUploadsLambda" style="text;html=1;whiteSpace=wrap;strokeColor=none;fillColor=none;align=center;verticalAlign=middle;rounded=0;" vertex="1" parent="RMAUc15zQo7j3xrATnNy-3">
          <mxGeometry x="59.999999999999545" y="1400" width="260" height="30" as="geometry" />
        </mxCell>
        <mxCell id="RMAUc15zQo7j3xrATnNy-4" value="Amazon S3" style="swimlane;startSize=20;html=1;" vertex="1" parent="RMAUc15zQo7j3xrATnNy-1">
          <mxGeometry x="760" y="20" width="290" height="1640" as="geometry" />
        </mxCell>
        <mxCell id="RMAUc15zQo7j3xrATnNy-36" style="edgeStyle=orthogonalEdgeStyle;rounded=0;orthogonalLoop=1;jettySize=auto;html=1;" edge="1" parent="RMAUc15zQo7j3xrATnNy-4">
          <mxGeometry relative="1" as="geometry">
            <mxPoint x="-130.00000000000045" y="500" as="targetPoint" />
            <mxPoint x="370.0399999999995" y="120" as="sourcePoint" />
            <Array as="points">
              <mxPoint x="370" y="420" />
              <mxPoint x="-110" y="420" />
              <mxPoint x="-110" y="500" />
            </Array>
          </mxGeometry>
        </mxCell>
        <mxCell id="RMAUc15zQo7j3xrATnNy-37" value="(6. INSERT Success)" style="edgeLabel;html=1;align=center;verticalAlign=middle;resizable=0;points=[];" vertex="1" connectable="0" parent="RMAUc15zQo7j3xrATnNy-36">
          <mxGeometry x="0.0596" y="-1" relative="1" as="geometry">
            <mxPoint x="-124" as="offset" />
          </mxGeometry>
        </mxCell>
        <mxCell id="RMAUc15zQo7j3xrATnNy-40" value="Amazon S3" style="sketch=0;outlineConnect=0;fontColor=#232F3E;gradientColor=none;strokeColor=#ffffff;fillColor=#232F3E;dashed=0;verticalLabelPosition=middle;verticalAlign=bottom;align=center;html=1;whiteSpace=wrap;fontSize=10;fontStyle=1;spacing=3;shape=mxgraph.aws4.productIcon;prIcon=mxgraph.aws4.s3;" vertex="1" parent="RMAUc15zQo7j3xrATnNy-4">
          <mxGeometry x="104.99999999999955" y="640" width="80" height="100" as="geometry" />
        </mxCell>
        <mxCell id="RMAUc15zQo7j3xrATnNy-5" value="Amazon RDS" style="swimlane;startSize=20;html=1;" vertex="1" parent="RMAUc15zQo7j3xrATnNy-1">
          <mxGeometry x="1050" y="20" width="330" height="1640" as="geometry" />
        </mxCell>
        <mxCell id="RMAUc15zQo7j3xrATnNy-15" value="Amazon RDS" style="sketch=0;outlineConnect=0;fontColor=#232F3E;gradientColor=none;strokeColor=#ffffff;fillColor=#232F3E;dashed=0;verticalLabelPosition=middle;verticalAlign=bottom;align=center;html=1;whiteSpace=wrap;fontSize=10;fontStyle=1;spacing=3;shape=mxgraph.aws4.productIcon;prIcon=mxgraph.aws4.rds;" vertex="1" parent="RMAUc15zQo7j3xrATnNy-5">
          <mxGeometry x="19.999999999999545" y="65" width="80" height="100" as="geometry" />
        </mxCell>
        <mxCell id="RMAUc15zQo7j3xrATnNy-6" value="EventBridge" style="swimlane;startSize=20;html=1;" vertex="1" parent="RMAUc15zQo7j3xrATnNy-1">
          <mxGeometry x="1380" y="20" width="460" height="1640" as="geometry" />
        </mxCell>
        <mxCell id="RMAUc15zQo7j3xrATnNy-51" value="" style="sketch=0;points=[[0,0,0],[0.25,0,0],[0.5,0,0],[0.75,0,0],[1,0,0],[0,1,0],[0.25,1,0],[0.5,1,0],[0.75,1,0],[1,1,0],[0,0.25,0],[0,0.5,0],[0,0.75,0],[1,0.25,0],[1,0.5,0],[1,0.75,0]];outlineConnect=0;fontColor=#232F3E;fillColor=#E7157B;strokeColor=#ffffff;dashed=0;verticalLabelPosition=bottom;verticalAlign=top;align=center;html=1;fontSize=12;fontStyle=0;aspect=fixed;shape=mxgraph.aws4.resourceIcon;resIcon=mxgraph.aws4.eventbridge;" vertex="1" parent="RMAUc15zQo7j3xrATnNy-6">
          <mxGeometry x="200" y="410" width="148" height="148" as="geometry" />
        </mxCell>
        <mxCell id="RMAUc15zQo7j3xrATnNy-13" style="edgeStyle=orthogonalEdgeStyle;rounded=0;orthogonalLoop=1;jettySize=auto;html=1;" edge="1" parent="RMAUc15zQo7j3xrATnNy-1" source="RMAUc15zQo7j3xrATnNy-8" target="RMAUc15zQo7j3xrATnNy-11">
          <mxGeometry relative="1" as="geometry" />
        </mxCell>
        <mxCell id="RMAUc15zQo7j3xrATnNy-14" value="&lt;p data-pm-slice=&quot;1 1 [&amp;quot;ordered_list&amp;quot;,{&amp;quot;order&amp;quot;:1},&amp;quot;list_item&amp;quot;,{},&amp;quot;bullet_list&amp;quot;,{},&amp;quot;list_item&amp;quot;,{}]&quot;&gt;&lt;code&gt;(2. Validates JWT, triggers Lambda)&lt;/code&gt;&lt;/p&gt;" style="edgeLabel;html=1;align=center;verticalAlign=middle;resizable=0;points=[];" vertex="1" connectable="0" parent="RMAUc15zQo7j3xrATnNy-13">
          <mxGeometry x="-0.234" y="1" relative="1" as="geometry">
            <mxPoint as="offset" />
          </mxGeometry>
        </mxCell>
        <mxCell id="RMAUc15zQo7j3xrATnNy-16" style="edgeStyle=orthogonalEdgeStyle;rounded=0;orthogonalLoop=1;jettySize=auto;html=1;" edge="1" parent="RMAUc15zQo7j3xrATnNy-1" source="RMAUc15zQo7j3xrATnNy-11" target="RMAUc15zQo7j3xrATnNy-15">
          <mxGeometry relative="1" as="geometry" />
        </mxCell>
        <mxCell id="RMAUc15zQo7j3xrATnNy-19" value="&lt;p data-pm-slice=&quot;1 1 [&amp;quot;ordered_list&amp;quot;,{&amp;quot;order&amp;quot;:1},&amp;quot;list_item&amp;quot;,{},&amp;quot;bullet_list&amp;quot;,{},&amp;quot;list_item&amp;quot;,{}]&quot;&gt;&lt;code&gt;(3. Check Query [user_id, file_size])&lt;/code&gt;&lt;/p&gt;" style="edgeLabel;html=1;align=center;verticalAlign=middle;resizable=0;points=[];" vertex="1" connectable="0" parent="RMAUc15zQo7j3xrATnNy-16">
          <mxGeometry x="0.0673" y="1" relative="1" as="geometry">
            <mxPoint x="-57" y="1" as="offset" />
          </mxGeometry>
        </mxCell>
        <mxCell id="RMAUc15zQo7j3xrATnNy-22" style="edgeStyle=orthogonalEdgeStyle;rounded=0;orthogonalLoop=1;jettySize=auto;html=1;entryX=0.5;entryY=0;entryDx=0;entryDy=0;" edge="1" parent="RMAUc15zQo7j3xrATnNy-1" source="RMAUc15zQo7j3xrATnNy-15" target="RMAUc15zQo7j3xrATnNy-24">
          <mxGeometry relative="1" as="geometry">
            <mxPoint x="499.99999999999955" y="190" as="targetPoint" />
            <Array as="points">
              <mxPoint x="930" y="160" />
              <mxPoint x="930" y="190" />
              <mxPoint x="530" y="190" />
              <mxPoint x="530" y="170" />
              <mxPoint x="495" y="170" />
              <mxPoint x="495" y="270" />
              <mxPoint x="527" y="270" />
            </Array>
          </mxGeometry>
        </mxCell>
        <mxCell id="RMAUc15zQo7j3xrATnNy-23" value="&lt;p data-pm-slice=&quot;1 1 [&amp;quot;ordered_list&amp;quot;,{&amp;quot;order&amp;quot;:1},&amp;quot;list_item&amp;quot;,{},&amp;quot;bullet_list&amp;quot;,{},&amp;quot;list_item&amp;quot;,{}]&quot;&gt;&lt;code&gt;(4. Check Result [is_quota_ok])&lt;/code&gt;&lt;/p&gt;" style="edgeLabel;html=1;align=center;verticalAlign=middle;resizable=0;points=[];" vertex="1" connectable="0" parent="RMAUc15zQo7j3xrATnNy-22">
          <mxGeometry x="0.1569" relative="1" as="geometry">
            <mxPoint x="66" as="offset" />
          </mxGeometry>
        </mxCell>
        <mxCell id="RMAUc15zQo7j3xrATnNy-33" style="edgeStyle=orthogonalEdgeStyle;rounded=0;orthogonalLoop=1;jettySize=auto;html=1;" edge="1" parent="RMAUc15zQo7j3xrATnNy-1" source="RMAUc15zQo7j3xrATnNy-24" target="RMAUc15zQo7j3xrATnNy-15">
          <mxGeometry relative="1" as="geometry" />
        </mxCell>
        <mxCell id="RMAUc15zQo7j3xrATnNy-34" value="(5. INSERT to pending_uploads...)" style="edgeLabel;html=1;align=center;verticalAlign=middle;resizable=0;points=[];" vertex="1" connectable="0" parent="RMAUc15zQo7j3xrATnNy-33">
          <mxGeometry x="-0.5523" y="2" relative="1" as="geometry">
            <mxPoint x="75" as="offset" />
          </mxGeometry>
        </mxCell>
        <mxCell id="RMAUc15zQo7j3xrATnNy-44" style="edgeStyle=orthogonalEdgeStyle;rounded=0;orthogonalLoop=1;jettySize=auto;html=1;dashed=1;" edge="1" parent="RMAUc15zQo7j3xrATnNy-1" source="RMAUc15zQo7j3xrATnNy-40" target="RMAUc15zQo7j3xrATnNy-43">
          <mxGeometry relative="1" as="geometry">
            <mxPoint x="835.9999999999995" y="730.0769230769229" as="sourcePoint" />
            <mxPoint x="579.9999999999991" y="855.92" as="targetPoint" />
            <Array as="points">
              <mxPoint x="865" y="856" />
            </Array>
          </mxGeometry>
        </mxCell>
        <mxCell id="RMAUc15zQo7j3xrATnNy-45" value="(11. Event Notification [object_key, user_id])" style="edgeLabel;html=1;align=center;verticalAlign=middle;resizable=0;points=[];" vertex="1" connectable="0" parent="RMAUc15zQo7j3xrATnNy-44">
          <mxGeometry x="-0.0071" y="1" relative="1" as="geometry">
            <mxPoint x="-46" as="offset" />
          </mxGeometry>
        </mxCell>
        <mxCell id="RMAUc15zQo7j3xrATnNy-47" style="edgeStyle=orthogonalEdgeStyle;rounded=0;orthogonalLoop=1;jettySize=auto;html=1;exitX=0.5;exitY=1;exitDx=0;exitDy=0;exitPerimeter=0;" edge="1" parent="RMAUc15zQo7j3xrATnNy-1" source="RMAUc15zQo7j3xrATnNy-43" target="RMAUc15zQo7j3xrATnNy-15">
          <mxGeometry relative="1" as="geometry">
            <mxPoint x="1129.9999999999995" y="130" as="targetPoint" />
            <mxPoint x="539.9999999999995" y="930" as="sourcePoint" />
            <Array as="points">
              <mxPoint x="534" y="930" />
              <mxPoint x="1170" y="930" />
              <mxPoint x="1170" y="130" />
            </Array>
          </mxGeometry>
        </mxCell>
        <mxCell id="RMAUc15zQo7j3xrATnNy-48" value="&lt;code&gt;(12. TRANSACTION START)&lt;/code&gt;&lt;div&gt;&lt;br/&gt;&lt;code&gt;(13. INSERT to photos)&lt;/code&gt;&amp;nbsp;&lt;/div&gt;&lt;div&gt;&lt;code style=&quot;background-color: light-dark(#ffffff, var(--ge-dark-color, #121212)); color: light-dark(rgb(0, 0, 0), rgb(255, 255, 255));&quot;&gt;(14. UPDATE users [storage_used])&lt;/code&gt;&lt;/div&gt;&lt;div&gt;&lt;span style=&quot;background-color: light-dark(#ffffff, var(--ge-dark-color, #121212)); color: light-dark(rgb(0, 0, 0), rgb(255, 255, 255));&quot;&gt;&lt;br/&gt;&lt;/span&gt;&lt;code style=&quot;background-color: light-dark(#ffffff, var(--ge-dark-color, #121212)); color: light-dark(rgb(0, 0, 0), rgb(255, 255, 255));&quot;&gt;(15. DELETE from pending_uploads)&lt;/code&gt;&lt;/div&gt;&lt;div&gt;&lt;span style=&quot;background-color: light-dark(#ffffff, var(--ge-dark-color, #121212)); color: light-dark(rgb(0, 0, 0), rgb(255, 255, 255));&quot;&gt;&lt;br/&gt;&lt;/span&gt;&lt;code style=&quot;background-color: light-dark(#ffffff, var(--ge-dark-color, #121212)); color: light-dark(rgb(0, 0, 0), rgb(255, 255, 255));&quot;&gt;(16. TRANSACTION COMMIT)&lt;/code&gt;&lt;/div&gt;" style="edgeLabel;html=1;align=center;verticalAlign=middle;resizable=0;points=[];" vertex="1" connectable="0" parent="RMAUc15zQo7j3xrATnNy-47">
          <mxGeometry x="-0.4852" y="5" relative="1" as="geometry">
            <mxPoint y="15" as="offset" />
          </mxGeometry>
        </mxCell>
        <mxCell id="RMAUc15zQo7j3xrATnNy-49" style="edgeStyle=orthogonalEdgeStyle;rounded=0;orthogonalLoop=1;jettySize=auto;html=1;entryX=0.5;entryY=1;entryDx=0;entryDy=0;entryPerimeter=0;" edge="1" parent="RMAUc15zQo7j3xrATnNy-1" source="RMAUc15zQo7j3xrATnNy-15" target="RMAUc15zQo7j3xrATnNy-43">
          <mxGeometry relative="1" as="geometry">
            <Array as="points">
              <mxPoint x="1190" y="150" />
              <mxPoint x="1190" y="1080" />
              <mxPoint x="534" y="1080" />
            </Array>
          </mxGeometry>
        </mxCell>
        <mxCell id="RMAUc15zQo7j3xrATnNy-50" value="(17. Commit Success)" style="edgeLabel;html=1;align=center;verticalAlign=middle;resizable=0;points=[];" vertex="1" connectable="0" parent="RMAUc15zQo7j3xrATnNy-49">
          <mxGeometry x="0.4947" relative="1" as="geometry">
            <mxPoint x="82" y="-1" as="offset" />
          </mxGeometry>
        </mxCell>
        <mxCell id="RMAUc15zQo7j3xrATnNy-56" style="edgeStyle=orthogonalEdgeStyle;rounded=0;orthogonalLoop=1;jettySize=auto;html=1;" edge="1" parent="RMAUc15zQo7j3xrATnNy-1" source="RMAUc15zQo7j3xrATnNy-51" target="RMAUc15zQo7j3xrATnNy-54">
          <mxGeometry relative="1" as="geometry">
            <Array as="points">
              <mxPoint x="1524" y="1350" />
            </Array>
          </mxGeometry>
        </mxCell>
        <mxCell id="RMAUc15zQo7j3xrATnNy-57" value="(18. Every 1 hour, triggers Lambda)" style="edgeLabel;html=1;align=center;verticalAlign=middle;resizable=0;points=[];" vertex="1" connectable="0" parent="RMAUc15zQo7j3xrATnNy-56">
          <mxGeometry x="0.3733" y="2" relative="1" as="geometry">
            <mxPoint x="18" y="-1" as="offset" />
          </mxGeometry>
        </mxCell>
        <mxCell id="RMAUc15zQo7j3xrATnNy-58" style="edgeStyle=orthogonalEdgeStyle;rounded=0;orthogonalLoop=1;jettySize=auto;html=1;" edge="1" parent="RMAUc15zQo7j3xrATnNy-1" source="RMAUc15zQo7j3xrATnNy-54" target="RMAUc15zQo7j3xrATnNy-15">
          <mxGeometry relative="1" as="geometry">
            <Array as="points">
              <mxPoint x="540" y="1280" />
              <mxPoint x="1290" y="1280" />
              <mxPoint x="1290" y="110" />
            </Array>
          </mxGeometry>
        </mxCell>
        <mxCell id="RMAUc15zQo7j3xrATnNy-59" value="(19. DELETE FROM pending_uploads WHERE timestamp &amp;lt; old)" style="edgeLabel;html=1;align=center;verticalAlign=middle;resizable=0;points=[];" vertex="1" connectable="0" parent="RMAUc15zQo7j3xrATnNy-58">
          <mxGeometry x="-0.5431" y="1" relative="1" as="geometry">
            <mxPoint as="offset" />
          </mxGeometry>
        </mxCell>
        <mxCell id="RMAUc15zQo7j3xrATnNy-60" style="edgeStyle=orthogonalEdgeStyle;rounded=0;orthogonalLoop=1;jettySize=auto;html=1;" edge="1" parent="RMAUc15zQo7j3xrATnNy-1" source="RMAUc15zQo7j3xrATnNy-15">
          <mxGeometry relative="1" as="geometry">
            <mxPoint x="579.9999999999995" y="1320" as="targetPoint" />
            <Array as="points">
              <mxPoint x="1110" y="80" />
              <mxPoint x="1330" y="80" />
              <mxPoint x="1330" y="1310" />
              <mxPoint x="650" y="1310" />
              <mxPoint x="650" y="1320" />
            </Array>
          </mxGeometry>
        </mxCell>
        <mxCell id="RMAUc15zQo7j3xrATnNy-61" value="(20. Update success)" style="edgeLabel;html=1;align=center;verticalAlign=middle;resizable=0;points=[];" vertex="1" connectable="0" parent="RMAUc15zQo7j3xrATnNy-60">
          <mxGeometry x="0.6577" y="2" relative="1" as="geometry">
            <mxPoint as="offset" />
          </mxGeometry>
        </mxCell>
        <mxCell id="RMAUc15zQo7j3xrATnNy-9" style="edgeStyle=orthogonalEdgeStyle;rounded=0;orthogonalLoop=1;jettySize=auto;html=1;" edge="1" parent="1" source="RMAUc15zQo7j3xrATnNy-7" target="RMAUc15zQo7j3xrATnNy-8">
          <mxGeometry relative="1" as="geometry" />
        </mxCell>
        <mxCell id="RMAUc15zQo7j3xrATnNy-10" value="&lt;p data-pm-slice=&quot;1 1 [&amp;quot;ordered_list&amp;quot;,{&amp;quot;order&amp;quot;:1},&amp;quot;list_item&amp;quot;,{},&amp;quot;bullet_list&amp;quot;,{},&amp;quot;list_item&amp;quot;,{}]&quot;&gt;&lt;code&gt;(1. POST /photos/generate-upload-url [JWT, file_size])&lt;/code&gt;&lt;/p&gt;" style="edgeLabel;html=1;align=center;verticalAlign=middle;resizable=0;points=[];" vertex="1" connectable="0" parent="RMAUc15zQo7j3xrATnNy-9">
          <mxGeometry x="-0.2433" y="3" relative="1" as="geometry">
            <mxPoint as="offset" />
          </mxGeometry>
        </mxCell>
        <mxCell id="RMAUc15zQo7j3xrATnNy-41" style="edgeStyle=orthogonalEdgeStyle;rounded=0;orthogonalLoop=1;jettySize=auto;html=1;" edge="1" parent="1" source="RMAUc15zQo7j3xrATnNy-7" target="RMAUc15zQo7j3xrATnNy-40">
          <mxGeometry relative="1" as="geometry">
            <mxPoint x="970" y="860" as="targetPoint" />
            <Array as="points">
              <mxPoint x="-350" y="760" />
            </Array>
          </mxGeometry>
        </mxCell>
        <mxCell id="RMAUc15zQo7j3xrATnNy-42" value="10. PUT request [photo_data])" style="edgeLabel;html=1;align=center;verticalAlign=middle;resizable=0;points=[];" vertex="1" connectable="0" parent="RMAUc15zQo7j3xrATnNy-41">
          <mxGeometry x="-0.0833" y="-4" relative="1" as="geometry">
            <mxPoint x="340" as="offset" />
          </mxGeometry>
        </mxCell>
        <mxCell id="RMAUc15zQo7j3xrATnNy-7" value="Mobile App(external factor)" style="rounded=0;whiteSpace=wrap;html=1;" vertex="1" parent="1">
          <mxGeometry x="-410" y="185" width="120" height="60" as="geometry" />
        </mxCell>
      </root>
    </mxGraphModel>
  </diagram>
  <diagram id="SqO_VajtAQSkf-D7d-9T" name="Block diagram(photo-upload)">
    <mxGraphModel dx="1895" dy="1084" grid="1" gridSize="10" guides="1" tooltips="1" connect="1" arrows="1" fold="1" page="1" pageScale="1" pageWidth="827" pageHeight="1169" math="0" shadow="0">
      <root>
        <mxCell id="0" />
        <mxCell id="1" parent="0" />
        <mxCell id="hQtGffmVdhxurv4hBHoG-1" value="&lt;h1 data-pm-slice=&quot;1 1 []&quot;&gt;Diagram 3: Component Block Diagrams&lt;/h1&gt;&lt;h1 style=&quot;margin-top: 0px;&quot;&gt;&lt;p&gt;&lt;strong&gt;Goal:&lt;/strong&gt; To show the internal structure of our storage services (S3 and RDS) as requested.&lt;/p&gt;&lt;/h1&gt;" style="text;html=1;whiteSpace=wrap;overflow=hidden;rounded=0;" parent="1" vertex="1">
          <mxGeometry x="40" y="20" width="1940" height="130" as="geometry" />
        </mxCell>
        <mxCell id="hQtGffmVdhxurv4hBHoG-5" value="&lt;h3 data-pm-slice=&quot;1 1 []&quot;&gt;&lt;strong&gt;1. Amazon S3: Storage Bucket Structure&lt;/strong&gt;&lt;/h3&gt;&lt;p&gt;This diagram shows how we will organize files within our S3 bucket. We will use a folder-per-user model to keep data isolated and secure.&lt;/p&gt;" style="text;html=1;whiteSpace=wrap;strokeColor=none;fillColor=none;align=center;verticalAlign=middle;rounded=0;" parent="1" vertex="1">
          <mxGeometry x="70" y="240" width="766" height="70" as="geometry" />
        </mxCell>
        <mxCell id="hQtGffmVdhxurv4hBHoG-6" value="" style="whiteSpace=wrap;html=1;aspect=fixed;" parent="1" vertex="1">
          <mxGeometry x="244" y="360" width="340" height="340" as="geometry" />
        </mxCell>
        <mxCell id="hQtGffmVdhxurv4hBHoG-7" value="&lt;pre data-pm-slice=&quot;1 1 []&quot;&gt;&lt;code&gt;[Amazon S3 Bucket: &quot;photosync-main-bucket&quot;]&lt;/code&gt;&lt;/pre&gt;" style="text;html=1;whiteSpace=wrap;strokeColor=none;fillColor=none;align=center;verticalAlign=middle;rounded=0;" parent="1" vertex="1">
          <mxGeometry x="264" y="380" width="300" height="40" as="geometry" />
        </mxCell>
        <mxCell id="hQtGffmVdhxurv4hBHoG-8" value="" style="rounded=0;whiteSpace=wrap;html=1;" parent="1" vertex="1">
          <mxGeometry x="270" y="450" width="220" height="140" as="geometry" />
        </mxCell>
        <mxCell id="hQtGffmVdhxurv4hBHoG-9" value="Folder: &quot;user_id_123&quot;" style="text;html=1;whiteSpace=wrap;strokeColor=none;fillColor=none;align=center;verticalAlign=middle;rounded=0;" parent="1" vertex="1">
          <mxGeometry x="280" y="470" width="120" height="30" as="geometry" />
        </mxCell>
        <mxCell id="hQtGffmVdhxurv4hBHoG-10" value="- photo_abc.jpg&lt;br/&gt;- photo_xyz.png&lt;br/&gt;- video_001.mp4" style="text;html=1;whiteSpace=wrap;strokeColor=none;fillColor=none;align=center;verticalAlign=middle;rounded=0;" parent="1" vertex="1">
          <mxGeometry x="280" y="502.5" width="140" height="55" as="geometry" />
        </mxCell>
        <mxCell id="hQtGffmVdhxurv4hBHoG-11" value="Other folders...." style="text;html=1;whiteSpace=wrap;strokeColor=none;fillColor=none;align=center;verticalAlign=middle;rounded=0;" parent="1" vertex="1">
          <mxGeometry x="244" y="620" width="140" height="30" as="geometry" />
        </mxCell>
        <mxCell id="hQtGffmVdhxurv4hBHoG-12" value="&lt;h3 data-pm-slice=&quot;1 1 []&quot;&gt;&lt;strong&gt;2. Amazon RDS (PostgreSQL): Database Schema&lt;/strong&gt;&lt;/h3&gt;&lt;p&gt;This diagram shows the database tables we will create inside our PostgreSQL instance. These tables will hold all the metadata for our application.&lt;/p&gt;" style="text;html=1;whiteSpace=wrap;strokeColor=none;fillColor=none;align=center;verticalAlign=middle;rounded=0;" parent="1" vertex="1">
          <mxGeometry x="110" y="790" width="790" height="30" as="geometry" />
        </mxCell>
        <mxCell id="hQtGffmVdhxurv4hBHoG-13" value="" style="rounded=0;whiteSpace=wrap;html=1;" parent="1" vertex="1">
          <mxGeometry x="244" y="913" width="340" height="840" as="geometry" />
        </mxCell>
        <mxCell id="hQtGffmVdhxurv4hBHoG-14" value="Amazon RDS Instance: &quot;photosync-db&quot;" style="text;html=1;whiteSpace=wrap;strokeColor=none;fillColor=none;align=center;verticalAlign=middle;rounded=0;" parent="1" vertex="1">
          <mxGeometry x="284" y="940" width="246" height="30" as="geometry" />
        </mxCell>
        <mxCell id="hQtGffmVdhxurv4hBHoG-15" value="" style="rounded=0;whiteSpace=wrap;html=1;" parent="1" vertex="1">
          <mxGeometry x="290" y="1010" width="230" height="160" as="geometry" />
        </mxCell>
        <mxCell id="hQtGffmVdhxurv4hBHoG-16" value="Table: &quot;users&quot;" style="text;html=1;whiteSpace=wrap;strokeColor=none;fillColor=none;align=center;verticalAlign=middle;rounded=0;" parent="1" vertex="1">
          <mxGeometry x="290" y="1020" width="140" height="30" as="geometry" />
        </mxCell>
        <mxCell id="hQtGffmVdhxurv4hBHoG-17" value="- user_id (Primary Key)&lt;div&gt;- email&lt;br&gt;- storage_used (e.g., 2.5GB)&lt;br&gt;- storage_quota (e.g., 5GB)&lt;/div&gt;" style="text;html=1;whiteSpace=wrap;strokeColor=none;fillColor=none;align=center;verticalAlign=middle;rounded=0;" parent="1" vertex="1">
          <mxGeometry x="320" y="1070" width="163" height="70" as="geometry" />
        </mxCell>
        <mxCell id="hQtGffmVdhxurv4hBHoG-18" value="" style="rounded=0;whiteSpace=wrap;html=1;" parent="1" vertex="1">
          <mxGeometry x="290" y="1250" width="230" height="180" as="geometry" />
        </mxCell>
        <mxCell id="hQtGffmVdhxurv4hBHoG-19" value="Table: &quot;photos&quot;" style="text;html=1;whiteSpace=wrap;strokeColor=none;fillColor=none;align=center;verticalAlign=middle;rounded=0;" parent="1" vertex="1">
          <mxGeometry x="310" y="1270" width="140" height="30" as="geometry" />
        </mxCell>
        <mxCell id="hQtGffmVdhxurv4hBHoG-20" value="- photo_id (Primary Key)&lt;br/&gt;- owner_id (Foreign Key to users)&lt;br/&gt;- object_key (e.g., &quot;user_id_123/...&quot;)&lt;br/&gt;- file_size&lt;br/&gt;- created_at (timestamp)" style="text;html=1;whiteSpace=wrap;strokeColor=none;fillColor=none;align=center;verticalAlign=middle;rounded=0;" parent="1" vertex="1">
          <mxGeometry x="290" y="1320" width="250" height="70" as="geometry" />
        </mxCell>
        <mxCell id="hQtGffmVdhxurv4hBHoG-22" value="" style="rounded=0;whiteSpace=wrap;html=1;" parent="1" vertex="1">
          <mxGeometry x="290" y="1510" width="230" height="150" as="geometry" />
        </mxCell>
        <mxCell id="hQtGffmVdhxurv4hBHoG-23" value="Table: &quot;pending_uploads&quot;" style="text;html=1;whiteSpace=wrap;strokeColor=none;fillColor=none;align=center;verticalAlign=middle;rounded=0;" parent="1" vertex="1">
          <mxGeometry x="310" y="1530" width="160" height="30" as="geometry" />
        </mxCell>
        <mxCell id="hQtGffmVdhxurv4hBHoG-24" value="- pending_id (Primary Key)&lt;br/&gt;- owner_id (Foreign Key to users)&lt;br/&gt;- file_size&lt;br/&gt;- created_at (timestamp)" style="text;html=1;whiteSpace=wrap;strokeColor=none;fillColor=none;align=center;verticalAlign=middle;rounded=0;" parent="1" vertex="1">
          <mxGeometry x="306.5" y="1580" width="190" height="60" as="geometry" />
        </mxCell>
      </root>
    </mxGraphModel>
  </diagram>
</mxfile>
